<?xml version="1.0" encoding="utf-8"?>
<!-- Generator: Adobe Illustrator 16.0.0, SVG Export Plug-In . SVG Version: 6.00 Build 0)  -->
<!DOCTYPE svg PUBLIC "-//W3C//DTD SVG 1.1//EN" "http://www.w3.org/Graphics/SVG/1.1/DTD/svg11.dtd">
<svg version="1.1" id="Layer_1" xmlns="http://www.w3.org/2000/svg" xmlns:xlink="http://www.w3.org/1999/xlink" x="0px" y="0px"
	 width="1728.9px" height="1160.825px" viewBox="0 0 1728.9 1160.825" enable-background="new 0 0 1728.9 1160.825"
	 xml:space="preserve">
<text transform="matrix(1 0 0 1 1408 884.3018)"><tspan x="0" y="0" font-family="'Ubuntu-Bold'" font-size="36">PORTUSPINE</tspan><tspan x="227.733" y="0" font-family="'Ubuntu-Light'" font-size="36">ERGO</tspan></text>
<text transform="matrix(1 0 0 1 935 1079.3018)"><tspan x="0" y="0" font-family="'Ubuntu-Bold'" font-size="36">PORTUSPINE</tspan><tspan x="227.733" y="0" font-family="'Ubuntu-Light'" font-size="36">TRACK</tspan></text>
<text transform="matrix(1 0 0 1 0 566.8018)"><tspan x="0" y="0" font-family="'Ubuntu-Bold'" font-size="36">PORTUSPINE</tspan><tspan x="227.733" y="0" font-family="'Ubuntu-Light'" font-size="36">WEAR</tspan></text>
<text transform="matrix(1 0 0 1 1034.3271 180.7749)"><tspan x="0" y="0" font-family="'Ubuntu-Bold'" font-size="36">PORTUSPINE</tspan><tspan x="227.733" y="0" font-family="'Ubuntu-Light'" font-size="36">CLOUD</tspan><tspan x="95.147" y="43.2" font-family="'Ubuntu-Light'" font-size="36">Cloud API</tspan></text>
<text transform="matrix(1 0 0 1 898 574.8018)"><tspan x="0" y="0" font-family="'Ubuntu-Bold'" font-size="48">PORTUSPINE  | </tspan><tspan x="353.658" y="0" font-family="'Ubuntu-Light'" font-size="48">Workflow</tspan></text>
<g>
	<polygon fill="none" stroke="#000000" stroke-width="3" stroke-miterlimit="10" points="422.278,543.705 432.754,549.754 
		422.278,555.803 	"/>
	<polygon fill="none" stroke="#000000" stroke-width="3" stroke-miterlimit="10" points="422.278,555.765 432.754,561.814 
		422.278,567.863 	"/>
	
		<line fill="none" stroke="#231F20" stroke-width="3" stroke-linecap="round" stroke-linejoin="round" stroke-miterlimit="10" x1="423.821" y1="554.888" x2="415.331" y2="559.872"/>
	
		<line fill="none" stroke="#231F20" stroke-width="3" stroke-linecap="round" stroke-linejoin="round" stroke-miterlimit="10" x1="415.24" y1="551.674" x2="423.821" y2="556.712"/>
</g>
<g>
	<g>
		
			<line fill="none" stroke="#231F20" stroke-width="3" stroke-linecap="round" stroke-linejoin="round" x1="340.367" y1="555.826" x2="346.367" y2="555.826"/>
		
			<line fill="none" stroke="#231F20" stroke-width="3" stroke-linecap="round" stroke-linejoin="round" stroke-dasharray="13.5714,16.9643" x1="363.332" y1="555.826" x2="385.385" y2="555.826"/>
		
			<line fill="none" stroke="#231F20" stroke-width="3" stroke-linecap="round" stroke-linejoin="round" x1="393.867" y1="555.826" x2="399.867" y2="555.826"/>
	</g>
</g>
<g>
	<g>
		
			<line fill="none" stroke="#231F20" stroke-width="3" stroke-linecap="round" stroke-linejoin="round" x1="454.367" y1="554.826" x2="460.367" y2="554.826"/>
		
			<line fill="none" stroke="#231F20" stroke-width="3" stroke-linecap="round" stroke-linejoin="round" stroke-dasharray="14.4286,18.0357" x1="478.403" y1="554.826" x2="501.85" y2="554.826"/>
		
			<line fill="none" stroke="#231F20" stroke-width="3" stroke-linecap="round" stroke-linejoin="round" x1="510.867" y1="554.826" x2="516.867" y2="554.826"/>
	</g>
</g>
<rect x="526.867" y="445.825" fill="none" stroke="#231F20" stroke-width="3" stroke-linecap="round" stroke-linejoin="round" stroke-miterlimit="10" stroke-dasharray="12,15" width="330" height="220"/>
<g>
	<path d="M613.014,526.336v54.044c0,1.829-0.669,3.413-2.006,4.75c-1.338,1.337-2.92,2.005-4.75,2.005h-27.021
		c-1.83,0-3.414-0.668-4.75-2.005c-1.337-1.337-2.005-2.921-2.005-4.75v-54.044c0-1.829,0.668-3.412,2.005-4.75
		c1.337-1.337,2.92-2.006,4.75-2.006h27.021c1.83,0,3.412,0.669,4.75,2.006C612.345,522.924,613.014,524.507,613.014,526.336z
		 M607.947,571.936V534.78c0-0.457-0.168-0.853-0.502-1.188c-0.335-0.334-0.73-0.502-1.188-0.502h-27.021
		c-0.458,0-0.854,0.168-1.188,0.502c-0.334,0.335-0.501,0.73-0.501,1.188v37.155c0,0.457,0.167,0.854,0.501,1.188
		c0.334,0.335,0.73,0.501,1.188,0.501h27.021c0.457,0,0.853-0.166,1.188-0.501C607.779,572.789,607.947,572.393,607.947,571.936z
		 M597.813,527.181c0-0.563-0.281-0.845-0.845-0.845h-8.444c-0.562,0-0.845,0.281-0.845,0.845s0.282,0.844,0.845,0.844h8.444
		C597.532,528.024,597.813,527.744,597.813,527.181z M595.729,583.361c0.826-0.826,1.24-1.821,1.24-2.981
		c0-1.161-0.414-2.155-1.24-2.982c-0.826-0.826-1.821-1.24-2.981-1.24c-1.161,0-2.155,0.414-2.982,1.24
		c-0.827,0.827-1.24,1.821-1.24,2.982c0,1.16,0.413,2.155,1.24,2.981c0.827,0.828,1.821,1.24,2.982,1.24
		C593.907,584.602,594.902,584.189,595.729,583.361z"/>
</g>
<g>
	<path d="M807.128,585.618h11.728v7.036c0,1.955-1.148,3.617-3.445,4.984c-2.297,1.369-5.058,2.053-8.282,2.053h-117.28
		c-3.226,0-5.987-0.684-8.283-2.053c-2.298-1.367-3.445-3.029-3.445-4.984v-7.036h11.729H807.128z M708.612,580.927
		c-3.226,0-5.987-1.147-8.283-3.445c-2.298-2.296-3.445-5.058-3.445-8.283v-51.604c0-3.225,1.147-5.985,3.445-8.282
		c2.296-2.297,5.058-3.445,8.283-3.445h79.75c3.226,0,5.986,1.148,8.283,3.445s3.445,5.058,3.445,8.282v51.604
		c0,3.226-1.148,5.987-3.445,8.283c-2.297,2.298-5.058,3.445-8.283,3.445H708.612z M706.267,517.595v51.604
		c0,0.636,0.231,1.186,0.696,1.649c0.464,0.465,1.014,0.696,1.649,0.696h79.75c0.635,0,1.185-0.231,1.649-0.696
		c0.464-0.464,0.696-1.014,0.696-1.649v-51.604c0-0.634-0.232-1.184-0.696-1.648c-0.465-0.464-1.015-0.696-1.649-0.696h-79.75
		c-0.636,0-1.186,0.232-1.649,0.696C706.498,516.411,706.267,516.961,706.267,517.595z M754.352,592.654
		c0.781,0,1.173-0.391,1.173-1.173c0-0.781-0.392-1.173-1.173-1.173h-11.729c-0.782,0-1.173,0.392-1.173,1.173
		c0,0.782,0.391,1.173,1.173,1.173H754.352z"/>
</g>
<path fill="none" stroke="#000000" stroke-width="3" stroke-linecap="round" stroke-linejoin="round" stroke-miterlimit="10" stroke-dasharray="12,15" d="
	M998.66,916.399c-112.6-42.429-200.511-135.664-236.09-251.3"/>
<path fill="none" stroke="#000000" stroke-width="3" stroke-linecap="round" stroke-linejoin="round" stroke-miterlimit="10" stroke-dasharray="12,15" d="
	M1433.43,802.633c-60.028,71.121-145.046,120.465-241.511,134.491"/>
<path fill="none" stroke="#000000" stroke-width="3" stroke-linecap="round" stroke-linejoin="round" stroke-miterlimit="10" stroke-dasharray="12,15" d="
	M1383.054,250.14c86.831,71.516,142.194,179.859,142.194,301.133c0,41.668-6.536,81.81-18.639,119.455"/>
<path fill="none" stroke="#000000" stroke-width="3" stroke-linecap="round" stroke-linejoin="round" stroke-miterlimit="10" stroke-dasharray="12,15" d="
	M762.123,437.91c36.623-120.72,130.213-216.661,249.482-256.533"/>
<g>
	<path fill="none" stroke="#000000" stroke-width="5" d="M1422.667,189.271c0,19.334-8.21,35.841-24.63,49.521
		c-16.42,13.679-36.233,20.519-59.44,20.519h-238.2c-27.004,0-50.102-7.994-69.292-23.985c-19.194-15.987-28.79-35.23-28.79-57.728
		c0-16.05,5.179-30.733,15.544-44.048c10.362-13.314,24.008-23.255,40.941-29.821c-0.295-3.403-0.438-6.019-0.438-7.843
		c0-25.777,10.947-47.787,32.84-66.026c21.894-18.24,48.31-27.359,79.254-27.359c23.061,0,43.969,5.352,62.725,16.05
		c18.754,10.702,32.437,24.686,41.051,41.951c10.214-7.538,22.331-11.308,36.343-11.308c15.469,0,28.681,4.56,39.627,13.679
		c10.946,9.12,16.42,20.126,16.42,33.013c0,9.12-2.993,17.51-8.977,25.17c18.829,3.648,34.373,11.827,46.633,24.532
		C1416.537,158.295,1422.667,172.855,1422.667,189.271z"/>
</g>
<g>
	<path d="M1613.215,690.226v101.732c0,4.114-1.466,7.637-4.395,10.566c-2.932,2.931-6.452,4.395-10.566,4.395h-50.866
		c0,2.308,0.498,4.723,1.496,7.247c0.996,2.524,1.994,4.736,2.992,6.639c0.996,1.9,1.496,3.257,1.496,4.067
		c0,1.62-0.594,3.022-1.776,4.208c-1.186,1.183-2.588,1.776-4.208,1.776h-47.874c-1.622,0-3.024-0.594-4.208-1.776
		c-1.185-1.186-1.776-2.588-1.776-4.208c0-0.874,0.498-2.244,1.496-4.114c0.996-1.87,1.994-4.052,2.992-6.545
		c0.996-2.493,1.496-4.924,1.496-7.294h-50.866c-4.114,0-7.637-1.464-10.566-4.395c-2.931-2.93-4.395-6.452-4.395-10.566V690.226
		c0-4.114,1.464-7.635,4.395-10.565c2.93-2.93,6.452-4.395,10.566-4.395h149.606c4.114,0,7.635,1.465,10.566,4.395
		C1611.749,682.591,1613.215,686.111,1613.215,690.226z M1601.246,768.021v-77.796c0-0.809-0.297-1.511-0.889-2.104
		c-0.593-0.592-1.294-0.889-2.104-0.889h-149.606c-0.812,0-1.513,0.297-2.104,0.889c-0.593,0.593-0.888,1.295-0.888,2.104v77.796
		c0,0.811,0.295,1.512,0.888,2.104c0.592,0.594,1.293,0.889,2.104,0.889h149.606c0.81,0,1.511-0.295,2.104-0.889
		C1600.949,769.533,1601.246,768.832,1601.246,768.021z"/>
</g>
<path d="M1506.524,714.683h5.144c0.25,0,0.455,0.08,0.616,0.241c0.16,0.16,0.24,0.366,0.24,0.616v22.285
	c0,0.251-0.08,0.456-0.24,0.616c-0.161,0.161-0.366,0.241-0.616,0.241h-5.144c-0.249,0-0.455-0.08-0.615-0.241
	c-0.161-0.16-0.241-0.365-0.241-0.616V715.54c0-0.25,0.08-0.456,0.241-0.616C1506.069,714.763,1506.275,714.683,1506.524,714.683z"
	/>
<path d="M1491.857,709.683h5.144c0.25,0,0.455,0.097,0.616,0.291c0.16,0.193,0.24,0.443,0.24,0.745v26.928
	c0,0.304-0.08,0.551-0.24,0.745c-0.161,0.194-0.366,0.291-0.616,0.291h-5.144c-0.249,0-0.455-0.097-0.615-0.291
	c-0.161-0.194-0.241-0.441-0.241-0.745v-26.928c0-0.302,0.08-0.552,0.241-0.745C1491.402,709.779,1491.608,709.683,1491.857,709.683
	z"/>
<path d="M1520.239,719.825h5.143c0.25,0,0.455,0.081,0.616,0.241c0.161,0.161,0.241,0.366,0.241,0.616v17.143
	c0,0.251-0.08,0.456-0.241,0.616c-0.161,0.161-0.366,0.241-0.616,0.241h-5.143c-0.25,0-0.455-0.08-0.616-0.241
	c-0.161-0.16-0.241-0.365-0.241-0.616v-17.143c0-0.25,0.08-0.455,0.241-0.616C1519.784,719.906,1519.989,719.825,1520.239,719.825z"
	/>
<path d="M1533.953,724.969h5.144c0.25,0,0.455,0.08,0.615,0.24c0.161,0.161,0.241,0.366,0.241,0.616v12
	c0,0.251-0.08,0.456-0.241,0.616c-0.16,0.161-0.365,0.241-0.615,0.241h-5.144c-0.25,0-0.455-0.08-0.616-0.241
	c-0.16-0.16-0.24-0.365-0.24-0.616v-12c0-0.25,0.08-0.455,0.24-0.616C1533.498,725.049,1533.703,724.969,1533.953,724.969z"/>
<path d="M1547.668,730.111h5.143c0.25,0,0.455,0.08,0.616,0.241c0.16,0.16,0.241,0.366,0.241,0.616v6.856
	c0,0.251-0.081,0.456-0.241,0.616c-0.161,0.161-0.366,0.241-0.616,0.241h-5.143c-0.251,0-0.456-0.08-0.616-0.241
	c-0.161-0.16-0.241-0.365-0.241-0.616v-6.856c0-0.25,0.08-0.456,0.241-0.616C1547.212,730.191,1547.417,730.111,1547.668,730.111z"
	/>
<path d="M1553.333,746.469l-3.716-3.717c-0.093-0.078-0.187-0.116-0.279-0.116c-0.108,0-0.198,0.034-0.269,0.104
	c-0.069,0.07-0.104,0.159-0.104,0.268v2.237h-15.848v-0.004h-41.625v2.984h41.441c0.002,0,0.002,0.001,0.003,0.001h16.028v2.237
	c0,0.171,0.078,0.287,0.233,0.349c0.147,0.062,0.283,0.035,0.408-0.081l3.727-3.728c0.07-0.086,0.105-0.175,0.105-0.268
	C1553.438,746.635,1553.403,746.546,1553.333,746.469z"/>
<g>
	<path d="M1184.74,891.028v25.685c0,1.74-0.637,3.245-1.906,4.515c-1.271,1.271-2.777,1.906-4.516,1.906h-166.947
		c-1.74,0-3.245-0.635-4.516-1.906c-1.271-1.27-1.906-2.774-1.906-4.515v-25.685c0-1.738,0.635-3.243,1.906-4.515
		c1.271-1.27,2.775-1.906,4.516-1.906h166.947c1.738,0,3.244,0.637,4.516,1.906C1184.104,887.785,1184.74,889.29,1184.74,891.028z
		 M1184.74,942.397v25.684c0,1.74-0.637,3.245-1.906,4.516c-1.271,1.271-2.777,1.906-4.516,1.906h-166.947
		c-1.74,0-3.245-0.636-4.516-1.906c-1.271-1.271-1.906-2.775-1.906-4.516v-25.684c0-1.739,0.635-3.244,1.906-4.516
		c1.271-1.27,2.775-1.906,4.516-1.906h166.947c1.738,0,3.244,0.637,4.516,1.906C1184.104,939.153,1184.74,940.658,1184.74,942.397z
		 M1184.74,993.766v25.685c0,1.74-0.637,3.245-1.906,4.515c-1.271,1.271-2.777,1.906-4.516,1.906h-166.947
		c-1.74,0-3.245-0.635-4.516-1.906c-1.271-1.27-1.906-2.774-1.906-4.515v-25.685c0-1.738,0.635-3.243,1.906-4.515
		c1.271-1.27,2.775-1.906,4.516-1.906h166.947c1.738,0,3.244,0.637,4.516,1.906C1184.104,990.522,1184.74,992.027,1184.74,993.766z
		 M1069.16,961.66h102.738v-12.842H1069.16V961.66z M1107.688,1013.029h64.211v-12.843h-64.211V1013.029z M1133.371,910.292h38.527
		v-12.843h-38.527V910.292z"/>
</g>
<path fill="none" stroke="#000000" stroke-width="5" stroke-miterlimit="10" d="M1183.867,861.158c0,5.522-4.528,10-10.113,10
	h-159.107c-5.586,0-10.113-4.478-10.113-10v-60.333c0-5.523,4.527-10,10.113-10h159.107c5.585,0,10.113,4.477,10.113,10V861.158z"/>
<g>
	<g>
		<path fill="#050505" d="M1033.609,843.259v3.178c0,0.154-0.05,0.281-0.149,0.38c-0.099,0.1-0.226,0.149-0.38,0.149h-3.178
			c-0.154,0-0.281-0.05-0.38-0.149c-0.1-0.099-0.149-0.226-0.149-0.38v-3.178c0-0.154,0.05-0.281,0.149-0.38
			c0.099-0.1,0.226-0.149,0.38-0.149h3.178c0.154,0,0.281,0.05,0.38,0.149C1033.56,842.978,1033.609,843.104,1033.609,843.259z
			 M1039.964,841.141v5.296c0,0.154-0.05,0.281-0.149,0.38c-0.099,0.1-0.226,0.149-0.38,0.149h-3.178
			c-0.154,0-0.281-0.05-0.381-0.149c-0.099-0.099-0.148-0.226-0.148-0.38v-5.296c0-0.154,0.05-0.281,0.148-0.38
			c0.1-0.1,0.227-0.149,0.381-0.149h3.178c0.154,0,0.281,0.05,0.38,0.149C1039.914,840.859,1039.964,840.986,1039.964,841.141z
			 M1046.318,836.904v9.532c0,0.154-0.05,0.281-0.149,0.38c-0.1,0.1-0.227,0.149-0.381,0.149h-3.177
			c-0.154,0-0.281-0.05-0.381-0.149c-0.099-0.099-0.148-0.226-0.148-0.38v-9.532c0-0.154,0.05-0.281,0.148-0.38
			c0.1-0.1,0.227-0.149,0.381-0.149h3.177c0.154,0,0.281,0.05,0.381,0.149C1046.269,836.623,1046.318,836.75,1046.318,836.904z
			 M1052.672,830.551v15.886c0,0.154-0.049,0.281-0.148,0.38c-0.1,0.1-0.227,0.149-0.381,0.149h-3.177
			c-0.155,0-0.281-0.05-0.381-0.149c-0.1-0.099-0.148-0.226-0.148-0.38v-15.886c0-0.154,0.049-0.281,0.148-0.381
			s0.226-0.149,0.381-0.149h3.177c0.154,0,0.281,0.05,0.381,0.149S1052.672,830.396,1052.672,830.551z M1059.026,822.078v24.358
			c0,0.154-0.049,0.281-0.148,0.38c-0.1,0.1-0.227,0.149-0.381,0.149h-3.177c-0.155,0-0.281-0.05-0.381-0.149
			c-0.1-0.099-0.149-0.226-0.149-0.38v-24.358c0-0.154,0.05-0.281,0.149-0.381s0.226-0.148,0.381-0.148h3.177
			c0.154,0,0.281,0.049,0.381,0.148S1059.026,821.924,1059.026,822.078z"/>
	</g>
	<g>
		<path fill="#050505" d="M1029.522,821.697c0.1-0.1,0.227-0.148,0.381-0.148h3.177c0.155,0,0.281,0.049,0.381,0.148
			s0.149,0.227,0.149,0.381v24.358c0,0.154-0.05,0.281-0.149,0.38c-0.1,0.1-0.226,0.149-0.381,0.149h-3.177
			c-0.154,0-0.281-0.05-0.381-0.149c-0.1-0.099-0.148-0.226-0.148-0.38v-24.358C1029.374,821.924,1029.423,821.797,1029.522,821.697
			z M1035.877,830.17c0.1-0.1,0.227-0.149,0.381-0.149h3.177c0.155,0,0.281,0.05,0.381,0.149s0.148,0.227,0.148,0.381v15.886
			c0,0.154-0.049,0.281-0.148,0.38c-0.1,0.1-0.226,0.149-0.381,0.149h-3.177c-0.154,0-0.281-0.05-0.381-0.149
			c-0.1-0.099-0.148-0.226-0.148-0.38v-15.886C1035.729,830.396,1035.777,830.27,1035.877,830.17z M1042.231,836.524
			c0.1-0.1,0.227-0.149,0.381-0.149h3.177c0.154,0,0.281,0.05,0.381,0.149c0.099,0.099,0.148,0.226,0.148,0.38v9.532
			c0,0.154-0.05,0.281-0.148,0.38c-0.1,0.1-0.227,0.149-0.381,0.149h-3.177c-0.154,0-0.281-0.05-0.381-0.149
			c-0.1-0.099-0.149-0.226-0.149-0.38v-9.532C1042.082,836.75,1042.132,836.623,1042.231,836.524z M1048.586,840.761
			c0.099-0.1,0.226-0.149,0.38-0.149h3.178c0.154,0,0.281,0.05,0.381,0.149c0.099,0.099,0.148,0.226,0.148,0.38v5.296
			c0,0.154-0.05,0.281-0.148,0.38c-0.1,0.1-0.227,0.149-0.381,0.149h-3.178c-0.154,0-0.281-0.05-0.38-0.149
			c-0.1-0.099-0.149-0.226-0.149-0.38v-5.296C1048.437,840.986,1048.486,840.859,1048.586,840.761z M1054.94,842.879
			c0.099-0.1,0.226-0.149,0.38-0.149h3.178c0.154,0,0.281,0.05,0.38,0.149c0.1,0.099,0.149,0.226,0.149,0.38v3.178
			c0,0.154-0.05,0.281-0.149,0.38c-0.099,0.1-0.226,0.149-0.38,0.149h-3.178c-0.154,0-0.281-0.05-0.38-0.149
			c-0.1-0.099-0.149-0.226-0.149-0.38v-3.178C1054.791,843.104,1054.841,842.978,1054.94,842.879z"/>
	</g>
	<g>
		<path fill="#050505" d="M1130.897,821.822c0.1-0.1,0.227-0.148,0.381-0.148h3.177c0.155,0,0.281,0.049,0.381,0.148
			s0.149,0.227,0.149,0.381v24.358c0,0.154-0.05,0.281-0.149,0.38c-0.1,0.1-0.226,0.149-0.381,0.149h-3.177
			c-0.154,0-0.281-0.05-0.381-0.149c-0.1-0.099-0.148-0.226-0.148-0.38v-24.358C1130.749,822.049,1130.798,821.922,1130.897,821.822
			z M1137.252,830.295c0.1-0.1,0.227-0.149,0.381-0.149h3.177c0.155,0,0.281,0.05,0.381,0.149s0.148,0.227,0.148,0.381v15.886
			c0,0.154-0.049,0.281-0.148,0.38c-0.1,0.1-0.226,0.149-0.381,0.149h-3.177c-0.154,0-0.281-0.05-0.381-0.149
			c-0.1-0.099-0.148-0.226-0.148-0.38v-15.886C1137.104,830.521,1137.152,830.395,1137.252,830.295z M1143.606,836.649
			c0.1-0.1,0.227-0.149,0.381-0.149h3.177c0.154,0,0.281,0.05,0.381,0.149c0.099,0.099,0.148,0.226,0.148,0.38v9.532
			c0,0.154-0.05,0.281-0.148,0.38c-0.1,0.1-0.227,0.149-0.381,0.149h-3.177c-0.154,0-0.281-0.05-0.381-0.149
			c-0.1-0.099-0.149-0.226-0.149-0.38v-9.532C1143.457,836.875,1143.507,836.748,1143.606,836.649z M1149.961,840.886
			c0.099-0.1,0.226-0.149,0.38-0.149h3.178c0.154,0,0.281,0.05,0.381,0.149c0.099,0.099,0.148,0.226,0.148,0.38v5.296
			c0,0.154-0.05,0.281-0.148,0.38c-0.1,0.1-0.227,0.149-0.381,0.149h-3.178c-0.154,0-0.281-0.05-0.38-0.149
			c-0.1-0.099-0.149-0.226-0.149-0.38v-5.296C1149.812,841.111,1149.861,840.984,1149.961,840.886z M1156.315,843.004
			c0.099-0.1,0.226-0.149,0.38-0.149h3.178c0.154,0,0.281,0.05,0.38,0.149c0.1,0.099,0.149,0.226,0.149,0.38v3.178
			c0,0.154-0.05,0.281-0.149,0.38c-0.099,0.1-0.226,0.149-0.38,0.149h-3.178c-0.154,0-0.281-0.05-0.38-0.149
			c-0.1-0.099-0.149-0.226-0.149-0.38v-3.178C1156.166,843.229,1156.216,843.103,1156.315,843.004z"/>
	</g>
	<g>
		<path fill="#050505" d="M1084.609,843.259v3.178c0,0.154-0.05,0.281-0.149,0.38c-0.099,0.1-0.226,0.149-0.38,0.149h-3.178
			c-0.154,0-0.281-0.05-0.38-0.149c-0.1-0.099-0.149-0.226-0.149-0.38v-3.178c0-0.154,0.05-0.281,0.149-0.38
			c0.099-0.1,0.226-0.149,0.38-0.149h3.178c0.154,0,0.281,0.05,0.38,0.149C1084.56,842.978,1084.609,843.104,1084.609,843.259z
			 M1090.964,841.141v5.296c0,0.154-0.05,0.281-0.149,0.38c-0.099,0.1-0.226,0.149-0.38,0.149h-3.178
			c-0.154,0-0.281-0.05-0.381-0.149c-0.099-0.099-0.148-0.226-0.148-0.38v-5.296c0-0.154,0.05-0.281,0.148-0.38
			c0.1-0.1,0.227-0.149,0.381-0.149h3.178c0.154,0,0.281,0.05,0.38,0.149C1090.914,840.859,1090.964,840.986,1090.964,841.141z
			 M1097.318,836.904v9.532c0,0.154-0.05,0.281-0.149,0.38c-0.1,0.1-0.227,0.149-0.381,0.149h-3.177
			c-0.154,0-0.281-0.05-0.381-0.149c-0.099-0.099-0.148-0.226-0.148-0.38v-9.532c0-0.154,0.05-0.281,0.148-0.38
			c0.1-0.1,0.227-0.149,0.381-0.149h3.177c0.154,0,0.281,0.05,0.381,0.149C1097.269,836.623,1097.318,836.75,1097.318,836.904z
			 M1103.672,830.551v15.886c0,0.154-0.049,0.281-0.148,0.38c-0.1,0.1-0.227,0.149-0.381,0.149h-3.177
			c-0.155,0-0.281-0.05-0.381-0.149c-0.1-0.099-0.148-0.226-0.148-0.38v-15.886c0-0.154,0.049-0.281,0.148-0.381
			s0.226-0.149,0.381-0.149h3.177c0.154,0,0.281,0.05,0.381,0.149S1103.672,830.396,1103.672,830.551z M1110.026,822.078v24.358
			c0,0.154-0.049,0.281-0.148,0.38c-0.1,0.1-0.227,0.149-0.381,0.149h-3.177c-0.155,0-0.281-0.05-0.381-0.149
			c-0.1-0.099-0.149-0.226-0.149-0.38v-24.358c0-0.154,0.05-0.281,0.149-0.381s0.226-0.148,0.381-0.148h3.177
			c0.154,0,0.281,0.049,0.381,0.148S1110.026,821.924,1110.026,822.078z"/>
	</g>
	<g>
		<path fill="#050505" d="M1055.022,821.697c0.1-0.1,0.227-0.148,0.381-0.148h3.177c0.155,0,0.281,0.049,0.381,0.148
			s0.149,0.227,0.149,0.381v24.358c0,0.154-0.05,0.281-0.149,0.38c-0.1,0.1-0.226,0.149-0.381,0.149h-3.177
			c-0.154,0-0.281-0.05-0.381-0.149c-0.1-0.099-0.148-0.226-0.148-0.38v-24.358C1054.874,821.924,1054.923,821.797,1055.022,821.697
			z M1061.377,830.17c0.1-0.1,0.227-0.149,0.381-0.149h3.177c0.155,0,0.281,0.05,0.381,0.149s0.148,0.227,0.148,0.381v15.886
			c0,0.154-0.049,0.281-0.148,0.38c-0.1,0.1-0.226,0.149-0.381,0.149h-3.177c-0.154,0-0.281-0.05-0.381-0.149
			c-0.1-0.099-0.148-0.226-0.148-0.38v-15.886C1061.229,830.396,1061.277,830.27,1061.377,830.17z M1067.731,836.524
			c0.1-0.1,0.227-0.149,0.381-0.149h3.177c0.154,0,0.281,0.05,0.381,0.149c0.099,0.099,0.148,0.226,0.148,0.38v9.532
			c0,0.154-0.05,0.281-0.148,0.38c-0.1,0.1-0.227,0.149-0.381,0.149h-3.177c-0.154,0-0.281-0.05-0.381-0.149
			c-0.1-0.099-0.149-0.226-0.149-0.38v-9.532C1067.582,836.75,1067.632,836.623,1067.731,836.524z M1074.086,840.761
			c0.099-0.1,0.226-0.149,0.38-0.149h3.178c0.154,0,0.281,0.05,0.381,0.149c0.099,0.099,0.148,0.226,0.148,0.38v5.296
			c0,0.154-0.05,0.281-0.148,0.38c-0.1,0.1-0.227,0.149-0.381,0.149h-3.178c-0.154,0-0.281-0.05-0.38-0.149
			c-0.1-0.099-0.149-0.226-0.149-0.38v-5.296C1073.937,840.986,1073.986,840.859,1074.086,840.761z M1080.44,842.879
			c0.099-0.1,0.226-0.149,0.38-0.149h3.178c0.154,0,0.281,0.05,0.38,0.149c0.1,0.099,0.149,0.226,0.149,0.38v3.178
			c0,0.154-0.05,0.281-0.149,0.38c-0.099,0.1-0.226,0.149-0.38,0.149h-3.178c-0.154,0-0.281-0.05-0.38-0.149
			c-0.1-0.099-0.149-0.226-0.149-0.38v-3.178C1080.291,843.104,1080.341,842.978,1080.44,842.879z"/>
	</g>
	<g>
		<path fill="#050505" d="M1099.522,821.697c0.1-0.1,0.227-0.148,0.381-0.148h3.177c0.155,0,0.281,0.049,0.381,0.148
			s0.149,0.227,0.149,0.381v24.358c0,0.154-0.05,0.281-0.149,0.38c-0.1,0.1-0.226,0.149-0.381,0.149h-3.177
			c-0.154,0-0.281-0.05-0.381-0.149c-0.1-0.099-0.148-0.226-0.148-0.38v-24.358C1099.374,821.924,1099.423,821.797,1099.522,821.697
			z M1105.877,830.17c0.1-0.1,0.227-0.149,0.381-0.149h3.177c0.155,0,0.281,0.05,0.381,0.149s0.148,0.227,0.148,0.381v15.886
			c0,0.154-0.049,0.281-0.148,0.38c-0.1,0.1-0.226,0.149-0.381,0.149h-3.177c-0.154,0-0.281-0.05-0.381-0.149
			c-0.1-0.099-0.148-0.226-0.148-0.38v-15.886C1105.729,830.396,1105.777,830.27,1105.877,830.17z M1112.231,836.524
			c0.1-0.1,0.227-0.149,0.381-0.149h3.177c0.154,0,0.281,0.05,0.381,0.149c0.099,0.099,0.148,0.226,0.148,0.38v9.532
			c0,0.154-0.05,0.281-0.148,0.38c-0.1,0.1-0.227,0.149-0.381,0.149h-3.177c-0.154,0-0.281-0.05-0.381-0.149
			c-0.1-0.099-0.149-0.226-0.149-0.38v-9.532C1112.082,836.75,1112.132,836.623,1112.231,836.524z M1118.586,840.761
			c0.099-0.1,0.226-0.149,0.38-0.149h3.178c0.154,0,0.281,0.05,0.381,0.149c0.099,0.099,0.148,0.226,0.148,0.38v5.296
			c0,0.154-0.05,0.281-0.148,0.38c-0.1,0.1-0.227,0.149-0.381,0.149h-3.178c-0.154,0-0.281-0.05-0.38-0.149
			c-0.1-0.099-0.149-0.226-0.149-0.38v-5.296C1118.437,840.986,1118.486,840.859,1118.586,840.761z M1124.94,842.879
			c0.099-0.1,0.226-0.149,0.38-0.149h3.178c0.154,0,0.281,0.05,0.38,0.149c0.1,0.099,0.149,0.226,0.149,0.38v3.178
			c0,0.154-0.05,0.281-0.149,0.38c-0.099,0.1-0.226,0.149-0.38,0.149h-3.178c-0.154,0-0.281-0.05-0.38-0.149
			c-0.1-0.099-0.149-0.226-0.149-0.38v-3.178C1124.791,843.104,1124.841,842.978,1124.94,842.879z"/>
	</g>
</g>
<path fill="none" stroke="#000000" stroke-width="3" stroke-linecap="round" stroke-linejoin="round" stroke-miterlimit="10" d="
	M425.035,584.581c-11.138,0-20.167-6.104-20.167-13.631v-32.917c0-7.528,9.029-13.63,20.167-13.63l0,0
	c11.137,0,20.167,6.102,20.167,13.63v32.917C445.201,578.478,436.172,584.581,425.035,584.581L425.035,584.581z"/>
<path fill="none" stroke="#231F20" stroke-width="3" stroke-linecap="round" stroke-linejoin="round" stroke-miterlimit="10" stroke-dasharray="12,15" d="
	M526.867,526.336c-44.465,0-80.511-36.046-80.511-80.511s36.046-80.511,80.511-80.511s80.511,36.046,80.511,80.511"/>
<polygon fill="#231F20" stroke="#231F20" stroke-width="2" stroke-linecap="round" stroke-linejoin="round" points="
	596.142,431.775 605.668,443.919 615.637,431.754 "/>
<text transform="matrix(1 0 0 1 399.001 345.8252)" font-family="'Ubuntu'" font-size="21">Real time pose estimation</text>
<text transform="matrix(1 0 0 1 649.3823 643.8252)" font-family="'Ubuntu'" font-size="21">Gateway</text>
<text transform="matrix(1 0 0 1 2.8672 594.8252)"><tspan x="0" y="0" font-family="'Ubuntu'" font-size="21">Placed optimally along with comp-</tspan><tspan x="0" y="25.2" font-family="'Ubuntu'" font-size="21">any ID at C4-C5 Vertebrae ie; neck</tspan></text>
<text transform="matrix(1 0 0 1 663.8672 134.8252)"><tspan x="0" y="0" font-family="'Ubuntu'" font-size="30">All sensor data sent</tspan><tspan x="0" y="32" font-family="'Ubuntu'" font-size="30">to the cloud</tspan><tspan x="0" y="57.2" font-family="'MyriadPro-Regular'" font-size="21">acceleromerter, gyroscope,</tspan><tspan x="0" y="82.4" font-family="'MyriadPro-Regular'" font-size="21">megnetometer, </tspan><tspan x="0" y="107.6" font-family="'MyriadPro-Regular'" font-size="21">timestamped power,</tspan><tspan x="0" y="132.8" font-family="'MyriadPro-Regular'" font-size="21">threshold value etc,</tspan></text>
<text transform="matrix(1 0 0 1 1069.8672 286.8252)" font-family="'Ubuntu'" font-size="21">all data are securely proccesed</text>
<text transform="matrix(1 0 0 1 936.8672 1105.8252)"><tspan x="0" y="0" font-family="'Ubuntu'" font-size="21">end user can set goals and track </tspan><tspan x="0" y="25.2" font-family="'Ubuntu'" font-size="21">performance and recieve reciprocal</tspan><tspan x="0" y="50.4" font-family="'Ubuntu'" font-size="21">guidelines from interactive/gamified app</tspan></text>
<text transform="matrix(1 0 0 1 1408.8672 908.8252)"><tspan x="0" y="0" font-family="'Ubuntu'" font-size="21">ergonomists can proactively eng-</tspan><tspan x="0" y="25.2" font-family="'Ubuntu'" font-size="21">age with users and push solutions</tspan><tspan x="0" y="50.4" font-family="'Ubuntu'" font-size="21">in timely manner</tspan></text>
</svg>
